<?xml version="1.0" encoding="UTF-8"?>
<svg width="344px" height="130px" viewBox="0 0 344 130" xmlns="http://www.w3.org/2000/svg" xmlns:xlink="http://www.w3.org/1999/xlink" version="1.1">
 <!-- Generated by Pixelmator Pro 2.1.3 -->
 <path id="Path" d="M19.508 117 L19.508 105.578 25.969 105.578 25.969 107.156 21.375 107.156 21.375 110.266 25.68 110.266 25.68 111.828 21.375 111.828 21.375 115.414 25.969 115.414 25.969 117 Z M28.25 117 L28.25 104.844 30.086 104.844 30.086 117 Z M32.203 112.742 C32.203 111.331 32.555 110.221 33.258 109.414 33.961 108.607 34.927 108.203 36.156 108.203 37.297 108.203 38.198 108.549 38.859 109.242 39.521 109.935 39.852 110.888 39.852 112.102 L39.852 113.094 34.094 113.094 C34.12 113.932 34.346 114.578 34.773 115.031 35.201 115.479 35.802 115.703 36.578 115.703 37.089 115.703 37.563 115.656 38 115.562 38.443 115.464 38.917 115.302 39.422 115.078 L39.422 116.57 C38.974 116.784 38.521 116.935 38.063 117.023 37.604 117.112 37.081 117.156 36.492 117.156 35.148 117.156 34.096 116.766 33.336 115.984 32.581 115.198 32.203 114.117 32.203 112.742 Z M34.125 111.766 L38.047 111.766 C38.036 111.052 37.865 110.513 37.531 110.148 37.198 109.779 36.74 109.594 36.156 109.594 35.573 109.594 35.104 109.779 34.75 110.148 34.401 110.518 34.193 111.057 34.125 111.766 Z M41.422 112.727 C41.422 111.273 41.776 110.156 42.484 109.375 43.198 108.594 44.227 108.203 45.57 108.203 46.482 108.203 47.302 108.372 48.031 108.711 L47.477 110.188 C46.701 109.885 46.06 109.734 45.555 109.734 44.06 109.734 43.313 110.727 43.313 112.711 43.313 113.68 43.497 114.409 43.867 114.898 44.242 115.383 44.789 115.625 45.508 115.625 46.326 115.625 47.099 115.422 47.828 115.016 L47.828 116.617 C47.5 116.81 47.148 116.948 46.773 117.031 46.404 117.115 45.953 117.156 45.422 117.156 44.115 117.156 43.12 116.776 42.438 116.016 41.76 115.25 41.422 114.154 41.422 112.727 Z M48.852 109.75 L48.852 108.938 50.117 108.266 50.742 106.438 51.875 106.438 51.875 108.359 54.336 108.359 54.336 109.75 51.875 109.75 51.875 114.375 C51.875 114.818 51.984 115.146 52.203 115.359 52.427 115.568 52.719 115.672 53.078 115.672 53.526 115.672 53.974 115.602 54.422 115.461 L54.422 116.844 C54.219 116.932 53.956 117.005 53.633 117.062 53.315 117.125 52.984 117.156 52.641 117.156 50.901 117.156 50.031 116.24 50.031 114.406 L50.031 109.75 Z M56.156 117 L56.156 108.359 57.594 108.359 57.836 109.883 57.93 109.883 C58.216 109.367 58.588 108.958 59.047 108.656 59.51 108.354 60.008 108.203 60.539 108.203 60.909 108.203 61.213 108.229 61.453 108.281 L61.273 109.992 C61.013 109.93 60.742 109.898 60.461 109.898 59.727 109.898 59.13 110.138 58.672 110.617 58.219 111.096 57.992 111.719 57.992 112.484 L57.992 117 Z M62.547 112.664 C62.547 111.263 62.906 110.169 63.625 109.383 64.344 108.596 65.357 108.203 66.664 108.203 67.914 108.203 68.904 108.607 69.633 109.414 70.362 110.216 70.727 111.299 70.727 112.664 70.727 114.076 70.365 115.177 69.641 115.969 68.917 116.76 67.909 117.156 66.617 117.156 65.81 117.156 65.096 116.974 64.477 116.609 63.857 116.245 63.38 115.721 63.047 115.039 62.713 114.357 62.547 113.565 62.547 112.664 Z M64.438 112.664 C64.438 114.659 65.174 115.656 66.648 115.656 68.107 115.656 68.836 114.659 68.836 112.664 68.836 110.69 68.102 109.703 66.633 109.703 65.862 109.703 65.302 109.958 64.953 110.469 64.609 110.979 64.438 111.711 64.438 112.664 Z M72.844 117 L72.844 108.359 74.281 108.359 74.539 109.492 74.633 109.492 C74.893 109.081 75.263 108.763 75.742 108.539 76.221 108.315 76.753 108.203 77.336 108.203 79.409 108.203 80.445 109.258 80.445 111.367 L80.445 117 78.602 117 78.602 111.688 C78.602 111.021 78.466 110.523 78.195 110.195 77.93 109.867 77.505 109.703 76.922 109.703 76.146 109.703 75.578 109.932 75.219 110.391 74.859 110.849 74.68 111.617 74.68 112.695 L74.68 117 Z M82.891 106.07 C82.891 105.742 82.979 105.49 83.156 105.312 83.339 105.135 83.596 105.047 83.93 105.047 84.253 105.047 84.503 105.135 84.68 105.312 84.862 105.49 84.953 105.742 84.953 106.07 84.953 106.383 84.862 106.63 84.68 106.812 84.503 106.99 84.253 107.078 83.93 107.078 83.596 107.078 83.339 106.99 83.156 106.812 82.979 106.63 82.891 106.383 82.891 106.07 Z M83 117 L83 108.359 84.836 108.359 84.836 117 Z M86.953 112.727 C86.953 111.273 87.307 110.156 88.016 109.375 88.729 108.594 89.758 108.203 91.102 108.203 92.013 108.203 92.833 108.372 93.563 108.711 L93.008 110.188 C92.232 109.885 91.591 109.734 91.086 109.734 89.591 109.734 88.844 110.727 88.844 112.711 88.844 113.68 89.029 114.409 89.398 114.898 89.773 115.383 90.32 115.625 91.039 115.625 91.857 115.625 92.63 115.422 93.359 115.016 L93.359 116.617 C93.031 116.81 92.68 116.948 92.305 117.031 91.935 117.115 91.484 117.156 90.953 117.156 89.646 117.156 88.651 116.776 87.969 116.016 87.292 115.25 86.953 114.154 86.953 112.727 Z M98.234 117 L102.508 105.531 104.539 105.531 108.812 117 106.828 117 105.688 113.828 101.32 113.828 100.203 117 Z M101.867 112.219 L105.195 112.219 104.125 109.109 C104.047 108.901 103.938 108.573 103.797 108.125 103.661 107.677 103.568 107.349 103.516 107.141 103.375 107.781 103.169 108.482 102.898 109.242 Z M109.609 112.695 C109.609 111.279 109.914 110.177 110.523 109.391 111.138 108.599 111.987 108.203 113.07 108.203 114.206 108.203 115.07 108.622 115.664 109.461 L115.758 109.461 C115.669 108.841 115.625 108.352 115.625 107.992 L115.625 104.844 117.469 104.844 117.469 117 116.031 117 115.711 115.867 115.625 115.867 C115.036 116.727 114.174 117.156 113.039 117.156 111.961 117.156 111.12 116.766 110.516 115.984 109.911 115.203 109.609 114.107 109.609 112.695 Z M111.5 112.727 C111.5 113.685 111.669 114.417 112.008 114.922 112.346 115.422 112.854 115.672 113.531 115.672 114.286 115.672 114.836 115.461 115.18 115.039 115.523 114.612 115.701 113.922 115.711 112.969 L115.711 112.711 C115.711 111.622 115.534 110.849 115.18 110.391 114.826 109.932 114.271 109.703 113.516 109.703 112.87 109.703 112.372 109.966 112.023 110.492 111.674 111.013 111.5 111.758 111.5 112.727 Z M118.781 108.359 L120.719 108.359 122.477 113.383 C122.779 114.227 122.961 114.909 123.023 115.43 L123.086 115.43 C123.133 115.055 123.315 114.372 123.633 113.383 L125.391 108.359 127.344 108.359 124.047 117 122.062 117 Z M128.047 114.523 C128.047 113.633 128.378 112.961 129.039 112.508 129.701 112.055 130.708 111.807 132.062 111.766 L133.555 111.719 133.555 111.258 C133.555 110.706 133.424 110.294 133.164 110.023 132.909 109.747 132.51 109.609 131.969 109.609 131.526 109.609 131.102 109.674 130.695 109.805 130.289 109.935 129.898 110.089 129.523 110.266 L128.93 108.953 C129.398 108.708 129.911 108.523 130.469 108.398 131.026 108.268 131.552 108.203 132.047 108.203 133.146 108.203 133.974 108.443 134.531 108.922 135.094 109.401 135.375 110.154 135.375 111.18 L135.375 117 134.062 117 133.695 115.797 133.633 115.797 C133.216 116.323 132.797 116.682 132.375 116.875 131.953 117.062 131.411 117.156 130.75 117.156 129.901 117.156 129.237 116.927 128.758 116.469 128.284 116.01 128.047 115.362 128.047 114.523 Z M129.953 114.539 C129.953 114.924 130.068 115.224 130.297 115.438 130.526 115.646 130.87 115.75 131.328 115.75 131.995 115.75 132.529 115.565 132.93 115.195 133.336 114.82 133.539 114.297 133.539 113.625 L133.539 112.875 132.43 112.922 C131.565 112.953 130.935 113.099 130.539 113.359 130.148 113.615 129.953 114.008 129.953 114.539 Z M137.938 117 L137.938 108.359 139.375 108.359 139.633 109.492 139.727 109.492 C139.987 109.081 140.357 108.763 140.836 108.539 141.315 108.315 141.846 108.203 142.43 108.203 144.503 108.203 145.539 109.258 145.539 111.367 L145.539 117 143.695 117 143.695 111.688 C143.695 111.021 143.56 110.523 143.289 110.195 143.023 109.867 142.599 109.703 142.016 109.703 141.24 109.703 140.672 109.932 140.312 110.391 139.953 110.849 139.773 111.617 139.773 112.695 L139.773 117 Z M147.578 112.727 C147.578 111.273 147.932 110.156 148.641 109.375 149.354 108.594 150.383 108.203 151.727 108.203 152.638 108.203 153.458 108.372 154.188 108.711 L153.633 110.188 C152.857 109.885 152.216 109.734 151.711 109.734 150.216 109.734 149.469 110.727 149.469 112.711 149.469 113.68 149.654 114.409 150.023 114.898 150.398 115.383 150.945 115.625 151.664 115.625 152.482 115.625 153.255 115.422 153.984 115.016 L153.984 116.617 C153.656 116.81 153.305 116.948 152.93 117.031 152.56 117.115 152.109 117.156 151.578 117.156 150.271 117.156 149.276 116.776 148.594 116.016 147.917 115.25 147.578 114.154 147.578 112.727 Z M155.5 112.742 C155.5 111.331 155.852 110.221 156.555 109.414 157.258 108.607 158.224 108.203 159.453 108.203 160.594 108.203 161.495 108.549 162.156 109.242 162.818 109.935 163.148 110.888 163.148 112.102 L163.148 113.094 157.391 113.094 C157.417 113.932 157.643 114.578 158.07 115.031 158.497 115.479 159.099 115.703 159.875 115.703 160.385 115.703 160.859 115.656 161.297 115.562 161.74 115.464 162.214 115.302 162.719 115.078 L162.719 116.57 C162.271 116.784 161.818 116.935 161.359 117.023 160.901 117.112 160.378 117.156 159.789 117.156 158.445 117.156 157.393 116.766 156.633 115.984 155.878 115.198 155.5 114.117 155.5 112.742 Z M157.422 111.766 L161.344 111.766 C161.333 111.052 161.161 110.513 160.828 110.148 160.495 109.779 160.036 109.594 159.453 109.594 158.87 109.594 158.401 109.779 158.047 110.148 157.698 110.518 157.49 111.057 157.422 111.766 Z M169.586 117 L169.586 105.578 172.875 105.578 C174.302 105.578 175.37 105.87 176.078 106.453 176.792 107.036 177.148 107.896 177.148 109.031 177.148 110.224 176.758 111.138 175.977 111.773 175.195 112.409 174.083 112.727 172.641 112.727 L171.453 112.727 171.453 117 Z M171.453 111.156 L172.445 111.156 C173.404 111.156 174.107 110.99 174.555 110.656 175.003 110.323 175.227 109.802 175.227 109.094 175.227 108.438 175.026 107.948 174.625 107.625 174.224 107.302 173.599 107.141 172.75 107.141 L171.453 107.141 Z M179.234 117 L179.234 104.844 181.07 104.844 181.07 117 Z M183.094 114.523 C183.094 113.633 183.424 112.961 184.086 112.508 184.747 112.055 185.755 111.807 187.109 111.766 L188.602 111.719 188.602 111.258 C188.602 110.706 188.471 110.294 188.211 110.023 187.956 109.747 187.557 109.609 187.016 109.609 186.573 109.609 186.148 109.674 185.742 109.805 185.336 109.935 184.945 110.089 184.57 110.266 L183.977 108.953 C184.445 108.708 184.958 108.523 185.516 108.398 186.073 108.268 186.599 108.203 187.094 108.203 188.193 108.203 189.021 108.443 189.578 108.922 190.141 109.401 190.422 110.154 190.422 111.18 L190.422 117 189.109 117 188.742 115.797 188.68 115.797 C188.263 116.323 187.844 116.682 187.422 116.875 187 117.062 186.458 117.156 185.797 117.156 184.948 117.156 184.284 116.927 183.805 116.469 183.331 116.01 183.094 115.362 183.094 114.523 Z M185 114.539 C185 114.924 185.115 115.224 185.344 115.438 185.573 115.646 185.917 115.75 186.375 115.75 187.042 115.75 187.576 115.565 187.977 115.195 188.383 114.82 188.586 114.297 188.586 113.625 L188.586 112.875 187.477 112.922 C186.612 112.953 185.982 113.099 185.586 113.359 185.195 113.615 185 114.008 185 114.539 Z M192.984 117 L192.984 108.359 194.422 108.359 194.68 109.492 194.773 109.492 C195.034 109.081 195.404 108.763 195.883 108.539 196.362 108.315 196.893 108.203 197.477 108.203 199.549 108.203 200.586 109.258 200.586 111.367 L200.586 117 198.742 117 198.742 111.688 C198.742 111.021 198.607 110.523 198.336 110.195 198.07 109.867 197.646 109.703 197.062 109.703 196.286 109.703 195.719 109.932 195.359 110.391 195 110.849 194.82 111.617 194.82 112.695 L194.82 117 Z M203.141 117 L203.141 108.359 204.578 108.359 204.836 109.492 204.93 109.492 C205.19 109.081 205.56 108.763 206.039 108.539 206.518 108.315 207.049 108.203 207.633 108.203 209.706 108.203 210.742 109.258 210.742 111.367 L210.742 117 208.898 117 208.898 111.688 C208.898 111.021 208.763 110.523 208.492 110.195 208.227 109.867 207.802 109.703 207.219 109.703 206.443 109.703 205.875 109.932 205.516 110.391 205.156 110.849 204.977 111.617 204.977 112.695 L204.977 117 Z M213.188 106.07 C213.188 105.742 213.276 105.49 213.453 105.312 213.635 105.135 213.893 105.047 214.227 105.047 214.549 105.047 214.799 105.135 214.977 105.312 215.159 105.49 215.25 105.742 215.25 106.07 215.25 106.383 215.159 106.63 214.977 106.812 214.799 106.99 214.549 107.078 214.227 107.078 213.893 107.078 213.635 106.99 213.453 106.812 213.276 106.63 213.188 106.383 213.188 106.07 Z M213.297 117 L213.297 108.359 215.133 108.359 215.133 117 Z M217.766 117 L217.766 108.359 219.203 108.359 219.461 109.492 219.555 109.492 C219.815 109.081 220.185 108.763 220.664 108.539 221.143 108.315 221.674 108.203 222.258 108.203 224.331 108.203 225.367 109.258 225.367 111.367 L225.367 117 223.523 117 223.523 111.688 C223.523 111.021 223.388 110.523 223.117 110.195 222.852 109.867 222.427 109.703 221.844 109.703 221.068 109.703 220.5 109.932 220.141 110.391 219.781 110.849 219.602 111.617 219.602 112.695 L219.602 117 Z M226.789 118.438 C226.789 117.906 226.956 117.458 227.289 117.094 227.628 116.734 228.099 116.484 228.703 116.344 228.458 116.24 228.255 116.073 228.094 115.844 227.938 115.609 227.859 115.365 227.859 115.109 227.859 114.786 227.951 114.513 228.133 114.289 228.315 114.065 228.586 113.844 228.945 113.625 228.497 113.432 228.133 113.12 227.852 112.688 227.576 112.25 227.438 111.74 227.438 111.156 227.438 110.219 227.732 109.492 228.32 108.977 228.914 108.461 229.758 108.203 230.852 108.203 231.096 108.203 231.352 108.221 231.617 108.258 231.888 108.289 232.091 108.323 232.227 108.359 L235.219 108.359 235.219 109.367 233.742 109.641 C233.878 109.823 233.99 110.047 234.078 110.312 234.167 110.578 234.211 110.859 234.211 111.156 234.211 112.047 233.904 112.747 233.289 113.258 232.674 113.768 231.828 114.023 230.75 114.023 230.474 114.023 230.224 114.003 230 113.961 229.604 114.206 229.406 114.492 229.406 114.82 229.406 115.018 229.497 115.167 229.68 115.266 229.867 115.365 230.208 115.414 230.703 115.414 L232.211 115.414 C233.164 115.414 233.888 115.617 234.383 116.023 234.878 116.43 235.125 117.016 235.125 117.781 235.125 118.76 234.721 119.516 233.914 120.047 233.107 120.578 231.94 120.844 230.414 120.844 229.237 120.844 228.339 120.635 227.719 120.219 227.099 119.802 226.789 119.208 226.789 118.438 Z M228.43 118.344 C228.43 118.74 228.607 119.044 228.961 119.258 229.32 119.471 229.823 119.578 230.469 119.578 231.469 119.578 232.214 119.435 232.703 119.148 233.193 118.862 233.438 118.482 233.438 118.008 233.438 117.633 233.302 117.365 233.031 117.203 232.766 117.047 232.268 116.969 231.539 116.969 L230.148 116.969 C229.622 116.969 229.203 117.091 228.891 117.336 228.583 117.586 228.43 117.922 228.43 118.344 Z M229.219 111.156 C229.219 111.698 229.357 112.115 229.633 112.406 229.914 112.698 230.315 112.844 230.836 112.844 231.898 112.844 232.43 112.276 232.43 111.141 232.43 110.578 232.297 110.146 232.031 109.844 231.771 109.536 231.372 109.383 230.836 109.383 230.305 109.383 229.901 109.534 229.625 109.836 229.354 110.138 229.219 110.578 229.219 111.156 Z M241.18 117 L241.18 105.578 244.711 105.578 C246.529 105.578 247.943 106.068 248.953 107.047 249.964 108.026 250.469 109.404 250.469 111.18 250.469 113.065 249.945 114.508 248.898 115.508 247.852 116.503 246.344 117 244.375 117 Z M243.047 115.43 L244.375 115.43 C247.125 115.43 248.5 114.034 248.5 111.242 248.5 108.508 247.221 107.141 244.664 107.141 L243.047 107.141 Z M252.219 112.664 C252.219 111.263 252.578 110.169 253.297 109.383 254.016 108.596 255.029 108.203 256.336 108.203 257.586 108.203 258.576 108.607 259.305 109.414 260.034 110.216 260.398 111.299 260.398 112.664 260.398 114.076 260.036 115.177 259.312 115.969 258.589 116.76 257.581 117.156 256.289 117.156 255.482 117.156 254.768 116.974 254.148 116.609 253.529 116.245 253.052 115.721 252.719 115.039 252.385 114.357 252.219 113.565 252.219 112.664 Z M254.109 112.664 C254.109 114.659 254.846 115.656 256.32 115.656 257.779 115.656 258.508 114.659 258.508 112.664 258.508 110.69 257.773 109.703 256.305 109.703 255.534 109.703 254.974 109.958 254.625 110.469 254.281 110.979 254.109 111.711 254.109 112.664 Z M262 112.727 C262 111.273 262.354 110.156 263.062 109.375 263.776 108.594 264.805 108.203 266.148 108.203 267.06 108.203 267.88 108.372 268.609 108.711 L268.055 110.188 C267.279 109.885 266.638 109.734 266.133 109.734 264.638 109.734 263.891 110.727 263.891 112.711 263.891 113.68 264.076 114.409 264.445 114.898 264.82 115.383 265.367 115.625 266.086 115.625 266.904 115.625 267.677 115.422 268.406 115.016 L268.406 116.617 C268.078 116.81 267.727 116.948 267.352 117.031 266.982 117.115 266.531 117.156 266 117.156 264.693 117.156 263.698 116.776 263.016 116.016 262.339 115.25 262 114.154 262 112.727 Z M270.359 114.008 L270.359 108.359 272.211 108.359 272.211 113.688 C272.211 114.349 272.346 114.846 272.617 115.18 272.888 115.508 273.312 115.672 273.891 115.672 274.661 115.672 275.227 115.443 275.586 114.984 275.951 114.521 276.133 113.747 276.133 112.664 L276.133 108.359 277.977 108.359 277.977 117 276.531 117 276.273 115.867 276.18 115.867 C275.924 116.268 275.56 116.583 275.086 116.812 274.617 117.042 274.081 117.156 273.477 117.156 272.43 117.156 271.648 116.896 271.133 116.375 270.617 115.854 270.359 115.065 270.359 114.008 Z M280.594 117 L280.594 108.359 282.031 108.359 282.289 109.492 282.383 109.492 C282.622 109.081 282.969 108.763 283.422 108.539 283.88 108.315 284.383 108.203 284.93 108.203 286.258 108.203 287.138 108.656 287.57 109.562 L287.695 109.562 C287.951 109.135 288.31 108.802 288.773 108.562 289.237 108.323 289.768 108.203 290.367 108.203 291.398 108.203 292.148 108.464 292.617 108.984 293.091 109.505 293.328 110.299 293.328 111.367 L293.328 117 291.492 117 291.492 111.672 C291.492 111.01 291.365 110.518 291.109 110.195 290.859 109.867 290.469 109.703 289.938 109.703 289.224 109.703 288.701 109.927 288.367 110.375 288.039 110.818 287.875 111.5 287.875 112.422 L287.875 117 286.031 117 286.031 111.672 C286.031 111.01 285.906 110.518 285.656 110.195 285.406 109.867 285.016 109.703 284.484 109.703 283.776 109.703 283.255 109.935 282.922 110.398 282.594 110.857 282.43 111.622 282.43 112.695 L282.43 117 Z M295.375 112.742 C295.375 111.331 295.727 110.221 296.43 109.414 297.133 108.607 298.099 108.203 299.328 108.203 300.469 108.203 301.37 108.549 302.031 109.242 302.693 109.935 303.023 110.888 303.023 112.102 L303.023 113.094 297.266 113.094 C297.292 113.932 297.518 114.578 297.945 115.031 298.372 115.479 298.974 115.703 299.75 115.703 300.26 115.703 300.734 115.656 301.172 115.562 301.615 115.464 302.089 115.302 302.594 115.078 L302.594 116.57 C302.146 116.784 301.693 116.935 301.234 117.023 300.776 117.112 300.253 117.156 299.664 117.156 298.32 117.156 297.268 116.766 296.508 115.984 295.753 115.198 295.375 114.117 295.375 112.742 Z M297.297 111.766 L301.219 111.766 C301.208 111.052 301.036 110.513 300.703 110.148 300.37 109.779 299.911 109.594 299.328 109.594 298.745 109.594 298.276 109.779 297.922 110.148 297.573 110.518 297.365 111.057 297.297 111.766 Z M305.109 117 L305.109 108.359 306.547 108.359 306.805 109.492 306.898 109.492 C307.159 109.081 307.529 108.763 308.008 108.539 308.487 108.315 309.018 108.203 309.602 108.203 311.674 108.203 312.711 109.258 312.711 111.367 L312.711 117 310.867 117 310.867 111.688 C310.867 111.021 310.732 110.523 310.461 110.195 310.195 109.867 309.771 109.703 309.188 109.703 308.411 109.703 307.844 109.932 307.484 110.391 307.125 110.849 306.945 111.617 306.945 112.695 L306.945 117 Z M314.258 109.75 L314.258 108.938 315.523 108.266 316.148 106.438 317.281 106.438 317.281 108.359 319.742 108.359 319.742 109.75 317.281 109.75 317.281 114.375 C317.281 114.818 317.391 115.146 317.609 115.359 317.833 115.568 318.125 115.672 318.484 115.672 318.932 115.672 319.38 115.602 319.828 115.461 L319.828 116.844 C319.625 116.932 319.362 117.005 319.039 117.062 318.721 117.125 318.391 117.156 318.047 117.156 316.307 117.156 315.438 116.24 315.438 114.406 L315.438 109.75 Z" fill="#ffffff" fill-opacity="1" stroke="none"/>
 <path id="Path-1" d="M150.778 93.999 L146.903 79.365 121.342 79.365 117.36 93.999 94.004 93.999 119.674 15.593 148.033 15.593 174.026 93.999 Z M142.491 62.06 L139.1 49.241 C138.311 46.393 137.342 42.708 136.194 38.185 135.082 33.663 134.347 30.423 133.988 28.465 133.665 30.281 133.019 33.272 132.051 37.438 131.118 41.604 129.019 49.811 125.755 62.06 Z" fill="#ffffff" fill-opacity="1" stroke="none"/>
 <path id="Path-2" d="M239.678 40.749 C239.678 49.473 237.077 56.22 231.875 60.992 226.709 65.727 219.355 68.095 209.812 68.095 L203.838 68.095 203.838 93.999 182.582 93.999 182.582 15.913 209.812 15.913 C219.749 15.913 227.212 18.068 232.198 22.376 237.185 26.684 239.678 32.809 239.678 40.749 Z M203.838 50.897 L207.713 50.897 C210.906 50.897 213.435 50.007 215.301 48.227 217.202 46.446 218.153 43.989 218.153 40.856 218.153 35.586 215.211 32.951 209.327 32.951 L203.838 32.951 Z" fill="#ffffff" fill-opacity="1" stroke="none"/>
 <path id="Path-3" d="M319 53.301 C319 66.333 315.377 76.374 308.13 83.424 300.919 90.474 290.766 93.999 277.671 93.999 L252.217 93.999 252.217 15.913 279.447 15.913 C292.075 15.913 301.815 19.118 308.668 25.527 315.556 31.936 319 41.194 319 53.301 Z M296.936 54.048 C296.936 46.891 295.501 41.586 292.631 38.132 289.797 34.678 285.474 32.951 279.662 32.951 L273.474 32.951 273.474 76.694 278.209 76.694 C284.667 76.694 289.402 74.843 292.416 71.14 295.43 67.401 296.936 61.704 296.936 54.048 Z" fill="#ffffff" fill-opacity="1" stroke="none"/>
 <path id="Path-4" d="M66.199 93.529 C74.085 92.343 81.439 88.954 87.356 83.782 L82.085 78.16 C77.305 82.34 71.362 85.078 64.99 86.036 58.618 86.995 52.095 86.132 46.225 83.555 40.354 80.978 35.392 76.798 31.951 71.531 28.51 66.264 26.74 60.14 26.858 53.914 26.977 47.687 28.979 41.63 32.618 36.489 36.257 31.348 41.374 27.347 47.339 24.979 53.304 22.612 59.855 21.981 66.186 23.165 72.256 24.3 77.869 27.056 82.392 31.112 L72.576 41.565 56.268 58.37 49.298 54.451 37.179 54.451 56.268 69.13 92.991 30.579 88.326 26.095 C82.63 20.78 75.458 17.175 67.679 15.72 59.844 14.255 51.736 15.036 44.354 17.965 36.972 20.895 30.639 25.847 26.135 32.21 21.631 38.572 19.153 46.068 19.007 53.774 18.86 61.48 21.051 69.06 25.31 75.578 29.569 82.096 35.709 87.269 42.975 90.458 50.24 93.648 58.313 94.716 66.199 93.529 Z" fill="#fdb124" fill-opacity="1" stroke="none"/>
</svg>
